<svg id="_11-upload" data-name="11-upload" xmlns="http://www.w3.org/2000/svg" viewBox="0 0 38.98 38.98"><path class="cls-1" d="M19.38 24.81h.22l-.11-.1Z"></path><path class="cls-1" d="M27.91 15.91h-.35v-.53a6.39 6.39 0 0 0-12.22-2.61 3.81 3.81 0 0 0-5.3 2.78 4.71 4.71 0 0 0 1.26 9.24h3.75l.06-.08L18 21.94a2.08 2.08 0 0 1 2.89 0l2.9 2.79.06.08h4a4.45 4.45 0 0 0 .06-8.9Z"></path><path class="cls-1" d="M22.79 25.81 19.9 23a.58.58 0 0 0-.81 0l-2.9 2.79a.58.58 0 0 0 .41 1h1.47V30h2.86v-3.18h1.47a.58.58 0 0 0 .39-1.01Z"></path></svg>