<svg xmlns="http://www.w3.org/2000/svg" viewBox="0 0 128 96"><path fill="#fff" d="M83.722 79.517a.172.172 0 0 1-.13 0l-.075-.056-19.573-14.344V52.74l-19.47 26.628c-.093.224-.373.14-.29-.14l7.456-23.124 12.07-3.616-31.083-10.02a.13.13 0 0 1-.093-.093.091.091 0 0 1 0-.065h23.72l7.708 9.99V18.058a.13.13 0 0 1 0-.084.14.14 0 0 1 .214 0v.056l7.708 24.233-7.708 9.99 31.11-10.02h.112c.168 0 .252.084.196.205a.294.294 0 0 1-.075.103l-19.2 13.56-12.08-3.616 19.48 26.694c.038.042.064.094.075.15s-.02.113-.075.13v.056zm19.573-39.826H73.75L63.953 9.567l-9.777 30.114h-29.47L48.537 57.1l-9.488 29.33 24.904-18.268L88.876 86.43l-9.507-29.546 23.907-17.196h.02z"/></svg>