<svg xmlns="http://www.w3.org/2000/svg" xmlns:xlink="http://www.w3.org/1999/xlink" viewBox="0 0 500 500"><defs><path id="a" fill="#aa241b" d="m301.9 351.8 67.9-67.9c42.7-42.7 42.7-111.9.1-154.5-42.7-42.7-111.8-42.7-154.5 0l-67.9 67.9c-3.9 3.9-10.8 4.8-15.5 2.1l-4.8-2.8c-7.7-4.6-17.7-3.4-24.1 3.1-7.7 7.7-7.7 20.4 0 28.1l168.5 168.5c7.8 7.8 20.4 7.8 28.1 0 6.4-6.4 7.6-16.4 3.1-24.1l-2.7-4.6c-2.9-4.9-2-11.9 1.8-15.8zM145.2 326c-7.8 7.8-7.8 20.3 0 28.1 7.7 7.7 20.3 7.7 28.1 0L145.2 326zM75 255.8c-23.3-23.3-23.3-61 0-84.3 15.4-15.4 37.5-20.8 57.7-15.4 4.3-4.3 54.7-54.8 54.7-54.8 48.5-48.5 122-56.8 178.8-24.4l3.7-3.7c15.5-15.5 40.7-15.5 56.2 0s15.5 40.7 0 56.2l-3.7 3.7C454.9 190 446.6 263.4 398 312l-54.8 54.8c5.4 20.2 0 42.1-15.3 57.5-23.3 23.3-61 23.3-84.3 0l-42.1-42.1c-23.3 23.2-61.1 23.2-84.3 0-23.3-23.3-23.3-61 0-84.2L75 255.8z"/></defs><use xlink:href="#a" overflow="visible" fill-rule="evenodd" clip-rule="evenodd"/></svg>