<svg xmlns="http://www.w3.org/2000/svg" viewBox="0 0 128 96"><path fill="#fff" d="M64 8c10.243 0 20.486 3.89 28.263 11.767l.465.47c15.183 15.6 15.028 40.588-.465 56.1C84.486 84.11 74.243 88 64 88s-20.486-3.89-28.263-11.673c-15.65-15.563-15.65-40.902 0-56.56C43.514 11.89 53.757 8 64 8zm0 3-.614.005C43.17 11.332 27 27.776 27 48.048 27 68.43 43.497 85 64 85l.535-.004c9.63-.14 18.852-4.027 25.594-10.853A36.975 36.975 0 0 0 101 47.952C101 27.57 84.407 11 64 11zm12 56c-.188 5.446-5.553 9.9-11.953 10C57.46 77 52.188 72.545 52 67zM47 48c3.9 0 7 3.1 7 7s-3.1 7-7 7-7-3.1-7-7 3.1-7 7-7zm34 0c3.9 0 7 3.1 7 7s-3.1 7-7 7-7-3.1-7-7 3.1-7 7-7z"/></svg>